<svg fill="none" xmlns="http://www.w3.org/2000/svg" viewBox="0 0 340 296"><path d="M169.959 145.26c13.83 0 20.03-.37 21.23-.46l-.04-.01c42.43-1.88 74.08-9.28 74.08-18.12 0-8.84-31.66-16.24-74.08-18.13v28.9c-1.19.11-7.8.66-21 .66-11 0-18.96-.47-21.74-.67v-28.91c-42.51 1.9-74.24 9.29-74.24 18.15s31.73 16.26 74.24 18.13c2.74.13 10.55.46 21.55.46zM191.189 105.541v.009l-.01-.01.01.001z" /><path fill-rule="evenodd" clip-rule="evenodd" d="M.26 131.45l61.89-130A2.5 2.5 0 0164.45 0H275a2.5 2.5 0 012.28 1.46l61.89 130a2.519 2.519 0 01-.54 2.94L171.48 294.56a2.546 2.546 0 01-3.53 0L.8 134.39a2.518 2.518 0 01-.54-2.94zM191.19 79.68v25.861c48.025 2.221 84.11 11.74 84.11 23.149 0 11.41-36.12 20.93-84.12 23.14v82.93h-42.78v-82.9c-48.11-2.22-84.29-11.74-84.29-23.16s36.18-20.95 84.29-23.16V79.68h-59.19V40.23h161.18v39.45h-59.2z" /></svg>